<svg width="510" height="74" viewBox="0 0 510 74" fill="none" xmlns="http://www.w3.org/2000/svg">
<path d="M15.596 26.472V30H1.82V26.136C1.82 25.1093 1.96933 24.232 2.268 23.504C2.58533 22.776 3.024 22.16 3.584 21.656C4.16267 21.152 4.85333 20.7413 5.656 20.424C6.45867 20.088 7.364 19.808 8.372 19.584C9.11867 19.416 9.72533 19.2293 10.192 19.024C10.6773 18.8 11.06 18.5573 11.34 18.296C11.62 18.016 11.8067 17.7173 11.9 17.4C12.012 17.064 12.068 16.6907 12.068 16.28C12.068 15.496 11.7787 14.8427 11.2 14.32C10.64 13.7973 9.856 13.536 8.848 13.536C7.784 13.536 6.93467 13.8627 6.3 14.516C5.66533 15.1507 5.348 16.0373 5.348 17.176V18.408H1.652V16.84C1.652 15.9253 1.81067 15.0573 2.128 14.236C2.464 13.396 2.93067 12.668 3.528 12.052C4.144 11.4173 4.89067 10.9227 5.768 10.568C6.64533 10.1947 7.63467 10.008 8.736 10.008C9.912 10.008 10.9387 10.1853 11.816 10.54C12.6933 10.876 13.4213 11.324 14 11.884C14.5973 12.444 15.036 13.0973 15.316 13.844C15.6147 14.572 15.764 15.328 15.764 16.112V16.448C15.764 18.0907 15.2973 19.4533 14.364 20.536C13.4493 21.6187 11.9467 22.4027 9.856 22.888C8.97867 23.0933 8.25067 23.308 7.672 23.532C7.112 23.7373 6.67333 23.9707 6.356 24.232C6.03867 24.4933 5.81467 24.7827 5.684 25.1C5.572 25.3987 5.516 25.744 5.516 26.136V26.472H15.596ZM23.6405 10.4H30.6405V22.776H33.4965V26.304H30.6405V30H26.9445V26.304H18.2085V21.208L23.6405 10.4ZM21.4005 22.272V22.776H26.9445V12.248H26.4405L21.4005 22.272ZM40.5051 20.2C40.5051 19.5653 40.7384 19.0147 41.2051 18.548C41.6717 18.0813 42.2224 17.848 42.8571 17.848C43.4917 17.848 44.0424 18.0813 44.5091 18.548C44.9757 19.0147 45.2091 19.5653 45.2091 20.2C45.2091 20.8347 44.9757 21.3853 44.5091 21.852C44.0424 22.3187 43.4917 22.552 42.8571 22.552C42.2224 22.552 41.6717 22.3187 41.2051 21.852C40.7384 21.3853 40.5051 20.8347 40.5051 20.2ZM35.6331 18.016C35.6331 15.4773 36.2677 13.508 37.5371 12.108C38.8251 10.708 40.5984 10.008 42.8571 10.008C45.1157 10.008 46.8797 10.708 48.1491 12.108C49.4371 13.508 50.0811 15.4773 50.0811 18.016V22.384C50.0811 24.9973 49.4371 26.9853 48.1491 28.348C46.8797 29.7107 45.1157 30.392 42.8571 30.392C40.5984 30.392 38.8251 29.7107 37.5371 28.348C36.2677 26.9853 35.6331 24.9973 35.6331 22.384V18.016ZM42.8571 27.032C43.5291 27.032 44.0891 26.9293 44.5371 26.724C44.9851 26.5 45.3491 26.192 45.6291 25.8C45.9091 25.408 46.1051 24.9413 46.2171 24.4C46.3291 23.8587 46.3851 23.2613 46.3851 22.608V17.792C46.3851 17.176 46.3197 16.5973 46.1891 16.056C46.0584 15.5147 45.8531 15.048 45.5731 14.656C45.2931 14.264 44.9291 13.956 44.4811 13.732C44.0331 13.4893 43.4917 13.368 42.8571 13.368C42.2224 13.368 41.6811 13.4893 41.2331 13.732C40.7851 13.956 40.4211 14.264 40.1411 14.656C39.8611 15.048 39.6557 15.5147 39.5251 16.056C39.3944 16.5973 39.3291 17.176 39.3291 17.792V22.608C39.3291 23.2613 39.3851 23.8587 39.4971 24.4C39.6091 24.9413 39.8051 25.408 40.0851 25.8C40.3651 26.192 40.7291 26.5 41.1771 26.724C41.6251 26.9293 42.1851 27.032 42.8571 27.032ZM58.2656 21.208H58.9376L62.6336 16.112H66.4976V16.28L62.0176 22.636V23.14L66.9456 29.832V30H62.9136L58.9376 24.568H58.2656V30H54.7376V10.4H58.2656V21.208ZM71.2941 18.604H75.5501V14.348H78.7421V18.604H82.9981V21.796H78.7421V26.052H75.5501V21.796H71.2941V18.604Z" fill="white"/>
<path d="M12.584 49.48H0.704V51.13H5.764V64H7.524V51.13H12.584V49.48ZM17.5376 52.78C14.2156 52.78 12.2136 54.936 12.2136 58.5C12.2136 62.064 14.2156 64.22 17.5376 64.22C20.8596 64.22 22.8616 62.064 22.8616 58.5C22.8616 54.936 20.8596 52.78 17.5376 52.78ZM17.5376 54.298C19.7596 54.298 21.1016 55.882 21.1016 58.5C21.1016 61.118 19.7596 62.702 17.5376 62.702C15.3156 62.702 13.9736 61.118 13.9736 58.5C13.9736 55.882 15.3156 54.298 17.5376 54.298ZM32.203 61.756C31.697 62.262 31.125 62.57 30.333 62.57C29.365 62.57 28.683 62.042 28.683 60.964V54.518H32.753V53H28.683V49.876L26.923 50.36V53H24.723V54.518H26.923V61.272C26.945 63.406 28.353 64.22 29.981 64.22C31.191 64.22 32.137 63.846 32.819 63.23L32.203 61.756ZM44.3238 62.724C43.7078 62.724 43.4878 62.46 43.4878 61.932V56.52C43.4878 53.968 41.6618 52.78 39.1538 52.78C37.0198 52.78 35.2818 53.836 34.7098 55.464L36.0078 56.41C36.6018 55.024 37.7018 54.32 39.1538 54.32C40.8038 54.32 41.7278 55.288 41.7278 56.74V57.356L38.8018 57.84C35.9638 58.324 34.5118 59.622 34.5118 61.272C34.5118 63.252 36.1838 64.22 38.2518 64.22C39.6598 64.22 41.0898 63.626 41.7938 62.592C41.9918 63.824 42.6958 64.22 43.7738 64.22C44.3238 64.22 44.7858 64.11 45.0938 64L45.2038 62.614C44.9398 62.68 44.6098 62.724 44.3238 62.724ZM38.3398 62.68C37.0858 62.68 36.3378 62.196 36.3378 61.272C36.3378 60.238 37.3278 59.6 39.2638 59.248L41.7278 58.786V60.304C41.7278 61.756 40.0998 62.68 38.3398 62.68ZM49.4368 47.94H47.6768V61.272C47.6768 63.274 48.5348 64.22 50.3168 64.22C50.8888 64.22 51.4828 64.11 51.9448 63.912L52.2308 62.218C51.5928 62.46 51.2188 62.526 50.6248 62.526C49.7228 62.526 49.4368 62.174 49.4368 61.052V47.94ZM66.208 49.26C62.842 49.26 60.796 51.24 60.796 53.572C60.796 55.794 62.204 56.982 66.12 57.664C69.178 58.192 70.124 58.918 70.124 60.172C70.124 61.734 68.628 62.57 66.384 62.57C64.008 62.57 62.512 61.514 61.742 59.842L60.224 61.074C61.236 62.878 63.26 64.22 66.34 64.22C69.728 64.22 71.95 62.57 71.95 60.084C71.95 57.84 70.564 56.608 66.67 55.948C63.612 55.42 62.644 54.738 62.644 53.374C62.644 51.988 63.92 50.91 66.23 50.91C68.364 50.91 69.42 51.658 70.3 53.572L71.818 52.34C70.696 50.316 68.87 49.26 66.208 49.26ZM84.1129 62.724C83.4969 62.724 83.2769 62.46 83.2769 61.932V56.52C83.2769 53.968 81.4509 52.78 78.9429 52.78C76.8089 52.78 75.0709 53.836 74.4989 55.464L75.7969 56.41C76.3909 55.024 77.4909 54.32 78.9429 54.32C80.5929 54.32 81.5169 55.288 81.5169 56.74V57.356L78.5909 57.84C75.7529 58.324 74.3009 59.622 74.3009 61.272C74.3009 63.252 75.9729 64.22 78.0409 64.22C79.4489 64.22 80.8789 63.626 81.5829 62.592C81.7809 63.824 82.4849 64.22 83.5629 64.22C84.1129 64.22 84.5749 64.11 84.8829 64L84.9929 62.614C84.7289 62.68 84.3989 62.724 84.1129 62.724ZM78.1289 62.68C76.8749 62.68 76.1269 62.196 76.1269 61.272C76.1269 60.238 77.1169 59.6 79.0529 59.248L81.5169 58.786V60.304C81.5169 61.756 79.8889 62.68 78.1289 62.68ZM89.2258 47.94H87.4658V61.272C87.4658 63.274 88.3238 64.22 90.1058 64.22C90.6778 64.22 91.2718 64.11 91.7338 63.912L92.0198 62.218C91.3818 62.46 91.0078 62.526 90.4138 62.526C89.5118 62.526 89.2258 62.174 89.2258 61.052V47.94ZM103.716 57.928C103.716 55.09 101.978 52.78 98.7884 52.78C95.4664 52.78 93.5964 54.936 93.5964 58.5C93.5964 62.064 95.5984 64.22 98.9204 64.22C101.296 64.22 102.66 63.318 103.496 61.822L102.022 61.052C101.626 62.108 100.526 62.68 98.9204 62.68C96.8964 62.68 95.5544 61.382 95.3344 59.16H103.628C103.672 58.852 103.716 58.434 103.716 57.928ZM98.7884 54.32C100.658 54.32 101.78 55.574 102.022 57.598H95.3564C95.6204 55.53 96.8304 54.32 98.7884 54.32Z" fill="white"/>
<path d="M187.392 26.472V12.248H186.888L185.04 18.968H181.512V18.632L183.864 10.4H191.088V26.472H195.96V30H181.848V26.472H187.392ZM203.361 20.2C203.361 19.5653 203.594 19.0147 204.061 18.548C204.527 18.0813 205.078 17.848 205.713 17.848C206.347 17.848 206.898 18.0813 207.365 18.548C207.831 19.0147 208.065 19.5653 208.065 20.2C208.065 20.8347 207.831 21.3853 207.365 21.852C206.898 22.3187 206.347 22.552 205.713 22.552C205.078 22.552 204.527 22.3187 204.061 21.852C203.594 21.3853 203.361 20.8347 203.361 20.2ZM198.489 18.016C198.489 15.4773 199.123 13.508 200.393 12.108C201.681 10.708 203.454 10.008 205.713 10.008C207.971 10.008 209.735 10.708 211.005 12.108C212.293 13.508 212.937 15.4773 212.937 18.016V22.384C212.937 24.9973 212.293 26.9853 211.005 28.348C209.735 29.7107 207.971 30.392 205.713 30.392C203.454 30.392 201.681 29.7107 200.393 28.348C199.123 26.9853 198.489 24.9973 198.489 22.384V18.016ZM205.713 27.032C206.385 27.032 206.945 26.9293 207.393 26.724C207.841 26.5 208.205 26.192 208.485 25.8C208.765 25.408 208.961 24.9413 209.073 24.4C209.185 23.8587 209.241 23.2613 209.241 22.608V17.792C209.241 17.176 209.175 16.5973 209.045 16.056C208.914 15.5147 208.709 15.048 208.429 14.656C208.149 14.264 207.785 13.956 207.337 13.732C206.889 13.4893 206.347 13.368 205.713 13.368C205.078 13.368 204.537 13.4893 204.089 13.732C203.641 13.956 203.277 14.264 202.997 14.656C202.717 15.048 202.511 15.5147 202.381 16.056C202.25 16.5973 202.185 17.176 202.185 17.792V22.608C202.185 23.2613 202.241 23.8587 202.353 24.4C202.465 24.9413 202.661 25.408 202.941 25.8C203.221 26.192 203.585 26.5 204.033 26.724C204.481 26.9293 205.041 27.032 205.713 27.032ZM220.505 20.2C220.505 19.5653 220.738 19.0147 221.205 18.548C221.672 18.0813 222.222 17.848 222.857 17.848C223.492 17.848 224.042 18.0813 224.509 18.548C224.976 19.0147 225.209 19.5653 225.209 20.2C225.209 20.8347 224.976 21.3853 224.509 21.852C224.042 22.3187 223.492 22.552 222.857 22.552C222.222 22.552 221.672 22.3187 221.205 21.852C220.738 21.3853 220.505 20.8347 220.505 20.2ZM215.633 18.016C215.633 15.4773 216.268 13.508 217.537 12.108C218.825 10.708 220.598 10.008 222.857 10.008C225.116 10.008 226.88 10.708 228.149 12.108C229.437 13.508 230.081 15.4773 230.081 18.016V22.384C230.081 24.9973 229.437 26.9853 228.149 28.348C226.88 29.7107 225.116 30.392 222.857 30.392C220.598 30.392 218.825 29.7107 217.537 28.348C216.268 26.9853 215.633 24.9973 215.633 22.384V18.016ZM222.857 27.032C223.529 27.032 224.089 26.9293 224.537 26.724C224.985 26.5 225.349 26.192 225.629 25.8C225.909 25.408 226.105 24.9413 226.217 24.4C226.329 23.8587 226.385 23.2613 226.385 22.608V17.792C226.385 17.176 226.32 16.5973 226.189 16.056C226.058 15.5147 225.853 15.048 225.573 14.656C225.293 14.264 224.929 13.956 224.481 13.732C224.033 13.4893 223.492 13.368 222.857 13.368C222.222 13.368 221.681 13.4893 221.233 13.732C220.785 13.956 220.421 14.264 220.141 14.656C219.861 15.048 219.656 15.5147 219.525 16.056C219.394 16.5973 219.329 17.176 219.329 17.792V22.608C219.329 23.2613 219.385 23.8587 219.497 24.4C219.609 24.9413 219.805 25.408 220.085 25.8C220.365 26.192 220.729 26.5 221.177 26.724C221.625 26.9293 222.185 27.032 222.857 27.032ZM238.266 21.208H238.938L242.634 16.112H246.498V16.28L242.018 22.636V23.14L246.946 29.832V30H242.914L238.938 24.568H238.266V30H234.738V10.4H238.266V21.208ZM251.294 18.604H255.55V14.348H258.742V18.604H262.998V21.796H258.742V26.052H255.55V21.796H251.294V18.604Z" fill="white"/>
<path d="M192.078 64H193.948L188.316 49.48H186.226L180.572 64H182.42L183.96 59.974H190.538L192.078 64ZM184.598 58.324L186.578 53.11L187.216 51.152H187.26L187.942 53.176L189.9 58.324H184.598ZM204.142 53V58.984C204.142 61.58 202.492 62.68 200.622 62.68C199.038 62.68 198.026 61.998 198.026 59.732V53H196.266V60.194C196.266 63.098 198.136 64.22 200.314 64.22C202.074 64.22 203.482 63.648 204.252 62.328L204.362 64H205.902V53H204.142ZM214.639 52.78C211.317 52.78 209.315 54.936 209.315 58.5C209.315 62.064 211.317 64.22 214.639 64.22C216.971 64.22 218.555 63.01 219.303 60.986L217.675 60.414C217.345 61.866 216.311 62.68 214.595 62.68C212.395 62.68 211.075 61.118 211.075 58.5C211.075 55.882 212.395 54.32 214.595 54.32C216.113 54.32 217.059 55.09 217.521 56.498L219.193 55.706C218.379 53.902 216.905 52.78 214.639 52.78ZM228.531 61.756C228.025 62.262 227.453 62.57 226.661 62.57C225.693 62.57 225.011 62.042 225.011 60.964V54.518H229.081V53H225.011V49.876L223.251 50.36V53H221.051V54.518H223.251V61.272C223.273 63.406 224.681 64.22 226.309 64.22C227.519 64.22 228.465 63.846 229.147 63.23L228.531 61.756ZM232.512 50.888C233.304 50.888 233.832 50.36 233.832 49.568C233.832 48.776 233.304 48.248 232.512 48.248C231.72 48.248 231.192 48.776 231.192 49.568C231.192 50.36 231.72 50.888 232.512 50.888ZM233.392 53H231.632V64H233.392V53ZM242.118 52.78C238.796 52.78 236.794 54.936 236.794 58.5C236.794 62.064 238.796 64.22 242.118 64.22C245.44 64.22 247.442 62.064 247.442 58.5C247.442 54.936 245.44 52.78 242.118 52.78ZM242.118 54.298C244.34 54.298 245.682 55.882 245.682 58.5C245.682 61.118 244.34 62.702 242.118 62.702C239.896 62.702 238.554 61.118 238.554 58.5C238.554 55.882 239.896 54.298 242.118 54.298ZM256.206 52.78C254.688 52.78 253.28 53.33 252.51 54.716L252.4 53H250.86V64H252.62V58.148C252.62 55.332 254.424 54.32 256.03 54.32C257.548 54.32 258.736 55.134 258.736 57.576V64H260.496V56.96C260.496 54.122 258.56 52.78 256.206 52.78ZM268.222 64.22C271.038 64.22 272.82 62.878 272.82 60.964C272.82 59.16 271.72 58.236 268.64 57.73C266.396 57.356 265.67 56.872 265.67 55.926C265.67 55.112 266.77 54.32 268.244 54.32C269.63 54.32 270.62 54.848 271.104 56.3L272.6 55.42C271.984 53.616 270.598 52.78 268.244 52.78C265.56 52.78 263.91 54.298 263.91 56.08C263.91 57.928 265.054 58.786 268.178 59.358C270.378 59.754 271.06 60.238 271.06 61.052C271.06 61.954 270.202 62.68 268.398 62.68C266.814 62.68 265.45 62.086 264.922 60.744L263.492 61.734C264.328 63.428 266.198 64.22 268.222 64.22Z" fill="white"/>
<path d="M375.596 26.472V30H361.82V26.136C361.82 25.1093 361.969 24.232 362.268 23.504C362.585 22.776 363.024 22.16 363.584 21.656C364.163 21.152 364.853 20.7413 365.656 20.424C366.459 20.088 367.364 19.808 368.372 19.584C369.119 19.416 369.725 19.2293 370.192 19.024C370.677 18.8 371.06 18.5573 371.34 18.296C371.62 18.016 371.807 17.7173 371.9 17.4C372.012 17.064 372.068 16.6907 372.068 16.28C372.068 15.496 371.779 14.8427 371.2 14.32C370.64 13.7973 369.856 13.536 368.848 13.536C367.784 13.536 366.935 13.8627 366.3 14.516C365.665 15.1507 365.348 16.0373 365.348 17.176V18.408H361.652V16.84C361.652 15.9253 361.811 15.0573 362.128 14.236C362.464 13.396 362.931 12.668 363.528 12.052C364.144 11.4173 364.891 10.9227 365.768 10.568C366.645 10.1947 367.635 10.008 368.736 10.008C369.912 10.008 370.939 10.1853 371.816 10.54C372.693 10.876 373.421 11.324 374 11.884C374.597 12.444 375.036 13.0973 375.316 13.844C375.615 14.572 375.764 15.328 375.764 16.112V16.448C375.764 18.0907 375.297 19.4533 374.364 20.536C373.449 21.6187 371.947 22.4027 369.856 22.888C368.979 23.0933 368.251 23.308 367.672 23.532C367.112 23.7373 366.673 23.9707 366.356 24.232C366.039 24.4933 365.815 24.7827 365.684 25.1C365.572 25.3987 365.516 25.744 365.516 26.136V26.472H375.596ZM383.641 10.4H390.641V22.776H393.497V26.304H390.641V30H386.945V26.304H378.209V21.208L383.641 10.4ZM381.401 22.272V22.776H386.945V12.248H386.441L381.401 22.272ZM400.505 20.2C400.505 19.5653 400.738 19.0147 401.205 18.548C401.672 18.0813 402.222 17.848 402.857 17.848C403.492 17.848 404.042 18.0813 404.509 18.548C404.976 19.0147 405.209 19.5653 405.209 20.2C405.209 20.8347 404.976 21.3853 404.509 21.852C404.042 22.3187 403.492 22.552 402.857 22.552C402.222 22.552 401.672 22.3187 401.205 21.852C400.738 21.3853 400.505 20.8347 400.505 20.2ZM395.633 18.016C395.633 15.4773 396.268 13.508 397.537 12.108C398.825 10.708 400.598 10.008 402.857 10.008C405.116 10.008 406.88 10.708 408.149 12.108C409.437 13.508 410.081 15.4773 410.081 18.016V22.384C410.081 24.9973 409.437 26.9853 408.149 28.348C406.88 29.7107 405.116 30.392 402.857 30.392C400.598 30.392 398.825 29.7107 397.537 28.348C396.268 26.9853 395.633 24.9973 395.633 22.384V18.016ZM402.857 27.032C403.529 27.032 404.089 26.9293 404.537 26.724C404.985 26.5 405.349 26.192 405.629 25.8C405.909 25.408 406.105 24.9413 406.217 24.4C406.329 23.8587 406.385 23.2613 406.385 22.608V17.792C406.385 17.176 406.32 16.5973 406.189 16.056C406.058 15.5147 405.853 15.048 405.573 14.656C405.293 14.264 404.929 13.956 404.481 13.732C404.033 13.4893 403.492 13.368 402.857 13.368C402.222 13.368 401.681 13.4893 401.233 13.732C400.785 13.956 400.421 14.264 400.141 14.656C399.861 15.048 399.656 15.5147 399.525 16.056C399.394 16.5973 399.329 17.176 399.329 17.792V22.608C399.329 23.2613 399.385 23.8587 399.497 24.4C399.609 24.9413 399.805 25.408 400.085 25.8C400.365 26.192 400.729 26.5 401.177 26.724C401.625 26.9293 402.185 27.032 402.857 27.032ZM418.266 21.208H418.938L422.634 16.112H426.498V16.28L422.018 22.636V23.14L426.946 29.832V30H422.914L418.938 24.568H418.266V30H414.738V10.4H418.266V21.208ZM431.294 18.604H435.55V14.348H438.742V18.604H442.998V21.796H438.742V26.052H435.55V21.796H431.294V18.604Z" fill="white"/>
<path d="M372.078 64H373.948L368.316 49.48H366.226L360.572 64H362.42L363.96 59.974H370.538L372.078 64ZM364.598 58.324L366.578 53.11L367.216 51.152H367.26L367.942 53.176L369.9 58.324H364.598ZM381.761 52.78C380.045 52.78 378.857 53.462 378.241 54.804L377.999 53H376.569V64H378.329V58.06C378.329 55.596 379.913 54.43 381.233 54.43C381.805 54.43 382.289 54.54 382.619 54.716L382.971 53C382.641 52.824 382.135 52.78 381.761 52.78ZM391 61.756C390.494 62.262 389.922 62.57 389.13 62.57C388.162 62.57 387.48 62.042 387.48 60.964V54.518H391.55V53H387.48V49.876L385.72 50.36V53H383.52V54.518H385.72V61.272C385.742 63.406 387.15 64.22 388.778 64.22C389.988 64.22 390.934 63.846 391.616 63.23L391 61.756ZM394.981 50.888C395.773 50.888 396.301 50.36 396.301 49.568C396.301 48.776 395.773 48.248 394.981 48.248C394.189 48.248 393.661 48.776 393.661 49.568C393.661 50.36 394.189 50.888 394.981 50.888ZM395.861 53H394.101V64H395.861V53ZM403.684 64.22C406.5 64.22 408.282 62.878 408.282 60.964C408.282 59.16 407.182 58.236 404.102 57.73C401.858 57.356 401.132 56.872 401.132 55.926C401.132 55.112 402.232 54.32 403.706 54.32C405.092 54.32 406.082 54.848 406.566 56.3L408.062 55.42C407.446 53.616 406.06 52.78 403.706 52.78C401.022 52.78 399.372 54.298 399.372 56.08C399.372 57.928 400.516 58.786 403.64 59.358C405.84 59.754 406.522 60.238 406.522 61.052C406.522 61.954 405.664 62.68 403.86 62.68C402.276 62.68 400.912 62.086 400.384 60.744L398.954 61.734C399.79 63.428 401.66 64.22 403.684 64.22ZM417.662 61.756C417.156 62.262 416.584 62.57 415.792 62.57C414.824 62.57 414.142 62.042 414.142 60.964V54.518H418.212V53H414.142V49.876L412.382 50.36V53H410.182V54.518H412.382V61.272C412.404 63.406 413.812 64.22 415.44 64.22C416.65 64.22 417.596 63.846 418.278 63.23L417.662 61.756ZM424.503 64.22C427.319 64.22 429.101 62.878 429.101 60.964C429.101 59.16 428.001 58.236 424.921 57.73C422.677 57.356 421.951 56.872 421.951 55.926C421.951 55.112 423.051 54.32 424.525 54.32C425.911 54.32 426.901 54.848 427.385 56.3L428.881 55.42C428.265 53.616 426.879 52.78 424.525 52.78C421.841 52.78 420.191 54.298 420.191 56.08C420.191 57.928 421.335 58.786 424.459 59.358C426.659 59.754 427.341 60.238 427.341 61.052C427.341 61.954 426.483 62.68 424.679 62.68C423.095 62.68 421.731 62.086 421.203 60.744L419.773 61.734C420.609 63.428 422.479 64.22 424.503 64.22Z" fill="white"/>
</svg>
