<svg width="86" height="13" viewBox="0 0 86 13" fill="none" xmlns="http://www.w3.org/2000/svg">
<path d="M2.792 6.432V4.576L6.44 2.24V2.048H0.104V0.799999H7.592V2.848L3.944 5.184V5.376H4.584C5.01067 5.376 5.42133 5.44533 5.816 5.584C6.21067 5.72267 6.55733 5.92533 6.856 6.192C7.16533 6.45867 7.41067 6.78933 7.592 7.184C7.784 7.568 7.88 8.016 7.88 8.528V8.816C7.88 9.296 7.784 9.744 7.592 10.16C7.4 10.576 7.13333 10.9387 6.792 11.248C6.45067 11.5467 6.04533 11.7867 5.576 11.968C5.11733 12.1387 4.616 12.224 4.072 12.224C3.44267 12.224 2.87733 12.128 2.376 11.936C1.87467 11.744 1.448 11.4827 1.096 11.152C0.744 10.8107 0.472 10.416 0.28 9.968C0.0986667 9.50933 0.00800002 9.024 0.00800002 8.512V7.648H1.352V8.416C1.352 8.82133 1.416 9.184 1.544 9.504C1.68267 9.81333 1.86933 10.08 2.104 10.304C2.34933 10.5173 2.63733 10.6827 2.968 10.8C3.29867 10.9173 3.656 10.976 4.04 10.976C4.392 10.976 4.71733 10.9173 5.016 10.8C5.32533 10.6827 5.592 10.5227 5.816 10.32C6.04 10.1067 6.216 9.86133 6.344 9.584C6.472 9.296 6.536 8.992 6.536 8.672V8.576C6.536 7.904 6.32267 7.38133 5.896 7.008C5.46933 6.624 4.936 6.432 4.296 6.432H2.792ZM13.5009 0.799999H16.1089V8.64H17.8369V9.888H16.1089V12H14.7649V9.888H9.58088V8.032L13.5009 0.799999ZM10.7329 8.448V8.64H14.7649V1.376H14.5729L10.7329 8.448ZM22.3698 11.104C22.3698 10.7947 22.4764 10.5333 22.6898 10.32C22.9138 10.096 23.1804 9.984 23.4898 9.984C23.7991 9.984 24.0604 10.096 24.2738 10.32C24.4978 10.5333 24.6098 10.7947 24.6098 11.104C24.6098 11.4133 24.4978 11.68 24.2738 11.904C24.0604 12.1173 23.7991 12.224 23.4898 12.224C23.1804 12.224 22.9138 12.1173 22.6898 11.904C22.4764 11.68 22.3698 11.4133 22.3698 11.104ZM29.6386 6.72V0.799999H36.6466V2.048H30.9506V6.048H31.1426C31.2493 5.83467 31.388 5.632 31.5586 5.44C31.7293 5.23733 31.9266 5.06133 32.1506 4.912C32.3853 4.76267 32.6466 4.64533 32.9346 4.56C33.2226 4.464 33.5426 4.416 33.8946 4.416C34.4066 4.416 34.876 4.50133 35.3026 4.672C35.74 4.84267 36.1133 5.08267 36.4226 5.392C36.732 5.70133 36.972 6.07467 37.1426 6.512C37.324 6.94933 37.4146 7.43467 37.4146 7.968V8.256C37.4146 8.78933 37.3293 9.296 37.1586 9.776C36.988 10.2453 36.7373 10.6667 36.4066 11.04C36.076 11.4027 35.6653 11.6907 35.1746 11.904C34.684 12.1173 34.1186 12.224 33.4786 12.224C32.828 12.224 32.252 12.128 31.7506 11.936C31.2493 11.744 30.828 11.4773 30.4866 11.136C30.1453 10.7947 29.884 10.3947 29.7026 9.936C29.532 9.46667 29.4466 8.96 29.4466 8.416V7.968H30.7906V8.32C30.7906 9.20533 31.036 9.872 31.5266 10.32C32.028 10.7573 32.6786 10.976 33.4786 10.976C33.9053 10.976 34.2786 10.9013 34.5986 10.752C34.9293 10.592 35.2013 10.384 35.4146 10.128C35.6386 9.86133 35.804 9.55733 35.9106 9.216C36.0173 8.864 36.0706 8.50133 36.0706 8.128V8.032C36.0706 7.70133 36.012 7.392 35.8946 7.104C35.788 6.816 35.6333 6.56533 35.4306 6.352C35.2386 6.13867 34.9986 5.97333 34.7106 5.856C34.4333 5.728 34.1293 5.664 33.7986 5.664C33.5746 5.664 33.3666 5.696 33.1746 5.76C32.9933 5.824 32.8333 5.90933 32.6946 6.016C32.556 6.112 32.4386 6.224 32.3426 6.352C32.2573 6.48 32.1986 6.60267 32.1666 6.72H29.6386ZM41.9795 6.432V4.576L45.6275 2.24V2.048H39.2915V0.799999H46.7795V2.848L43.1315 5.184V5.376H43.7715C44.1982 5.376 44.6088 5.44533 45.0035 5.584C45.3982 5.72267 45.7448 5.92533 46.0435 6.192C46.3528 6.45867 46.5982 6.78933 46.7795 7.184C46.9715 7.568 47.0675 8.016 47.0675 8.528V8.816C47.0675 9.296 46.9715 9.744 46.7795 10.16C46.5875 10.576 46.3208 10.9387 45.9795 11.248C45.6382 11.5467 45.2328 11.7867 44.7635 11.968C44.3048 12.1387 43.8035 12.224 43.2595 12.224C42.6302 12.224 42.0648 12.128 41.5635 11.936C41.0622 11.744 40.6355 11.4827 40.2835 11.152C39.9315 10.8107 39.6595 10.416 39.4675 9.968C39.2862 9.50933 39.1955 9.024 39.1955 8.512V7.648H40.5395V8.416C40.5395 8.82133 40.6035 9.184 40.7315 9.504C40.8702 9.81333 41.0568 10.08 41.2915 10.304C41.5368 10.5173 41.8248 10.6827 42.1555 10.8C42.4862 10.9173 42.8435 10.976 43.2275 10.976C43.5795 10.976 43.9048 10.9173 44.2035 10.8C44.5128 10.6827 44.7795 10.5227 45.0035 10.32C45.2275 10.1067 45.4035 9.86133 45.5315 9.584C45.6595 9.296 45.7235 8.992 45.7235 8.672V8.576C45.7235 7.904 45.5102 7.38133 45.0835 7.008C44.6568 6.624 44.1235 6.432 43.4835 6.432H41.9795ZM59.2853 0.799999H66.0693V2.048H60.6293V5.76H65.9733V7.008H60.6293V10.752H66.1653V12H59.2853V0.799999ZM68.5381 0.799999H76.4101V2.048H73.1461V12H71.8021V2.048H68.5381V0.799999ZM78.543 0.799999H79.887V5.76H84.655V0.799999H85.999V12H84.655V7.008H79.887V12H78.543V0.799999Z" fill="white"/>
</svg>
